<?xml version="1.0" standalone="no"?>
<!DOCTYPE svg PUBLIC "-//W3C//DTD SVG 1.1//EN" "http://www.w3.org/Graphics/SVG/1.1/DTD/svg11.dtd" >
<svg xmlns="http://www.w3.org/2000/svg">
<metadata>Generated by IcoMoon</metadata>
<defs>
<font id="icomoon" horiz-adv-x="1024">
<font-face units-per-em="1024" ascent="960" descent="-64" />
<missing-glyph horiz-adv-x="1024" />
<glyph unicode="&#x20;" horiz-adv-x="512" d="" />
<glyph unicode="&#xe900;" glyph-name="menulateral_correio" horiz-adv-x="1260" d="M808.363 389.968c-2.67 4.476-6.675 4.947-12.015 1.335l-136.481-80.177c-17.826-9.816-35.18-9.816-52.142 0l-120.304 68.162c-4.555 2.67-8.481 2.199-12.015-1.335l-453.418-421.065c-2.67-1.728-4.005-4.476-4.005-8.010s1.728-6.282 5.34-8.010c4.869-3.063 9.109-3.534 13.585-4.555h1173.281c2.67 0.942 5.418 1.492 7.303 4.555 0.864 3.534 0 7.146-2.67 10.68l-406.459 438.42zM375.048 428.682c2.748 0.942 4.005 3.612 4.005 8.088 0 3.534-1.728 6.204-5.34 8.010l-355.73 203.151c-3.612 0.864-7.146 0.864-10.758 0-3.455-1.806-5.261-4.869-5.261-9.345v-533.36c0-3.534 2.199-6.675 6.675-9.345h4.005c3.612 0 5.811 0.864 6.675 2.67l355.73 330.13zM1249.61 946.022c-8.010 8.010-18.218 12.015-30.783 12.015h-1175.401c-11.544 0-21.36-4.005-29.369-12.015-8.088-8.010-12.093-17.826-12.093-29.369v-133.654c0-3.534 2.591-7.146 8.010-10.68l617.855-351.568c0.864-0.864 2.591-1.335 5.261-1.335s4.476 0.471 5.34 1.335l599.087 351.568c4.476 3.534 9.345 5.811 14.763 6.675 3.377 0 5.654 1.099 7.225 2.906v146.218c-1.806 6.596-4.712 12.8-9.894 17.904zM1245.605 655.941l-339.632-199.225c-2.67-1.728-4.083-4.476-4.083-8.010-0.864-2.67 0-5.34 2.67-8.010l338.375-364.918c2.67-2.67 5.34-4.005 8.088-4.005 1.728 0 3.063 0.471 4.005 1.335 2.984 1.256 3.534 3.926 4.555 6.361v570.896c-0.864 2.042-1.099 4.555-3.22 5.575-4.555 2.748-8.088 2.748-10.758 0z" />
<glyph unicode="&#xe901;" glyph-name="menulateral_chamado" d="M512 960c-282.347 0-512-229.653-512-512.055 0-282.292 229.653-511.945 512-511.945 17.436 0 31.495 14.17 31.495 31.495 0 17.436-14.059 31.606-31.495 31.606-247.476 0-448.789 201.313-448.789 448.789s201.368 448.844 448.789 448.844 448.733-201.424 448.733-448.844c0-103.396-55.019-205.962-133.84-249.302-28.617-15.83-59.669-23.635-92.769-23.912 19.816 11.901 37.141 27.786 49.816 47.99 2.491 3.764 5.867 7.030 7.583 11.236 10.295 24.742 11.126 52.805 17.325 78.931 7.583 33.322-146.017 98.47-159.412 56.846-4.816-15.498-12.177-64.263-21.919-77.049-8.579-11.513-29.834-6.089-43.119 5.203-35.037 29.834-74.115 73.783-108.433 108.323l0.055 0.111c-0.664 0.996-1.771 2.048-2.712 2.989-1.052 0.83-1.993 1.882-2.989 2.878-34.65 34.262-78.544 73.23-108.323 108.378-11.292 13.284-16.827 34.429-5.258 43.119 12.786 9.742 61.551 16.993 77.049 21.864 41.569 13.395-23.58 167.050-56.901 159.357-26.126-6.144-54.189-7.030-78.931-17.214-4.207-1.771-7.417-5.148-11.236-7.638-87.677-55.573-99.024-190.63-13.45-291.259 32.713-38.469 66.698-75.665 101.791-112.086l-0.166-0.111c0.996-0.996 1.993-1.827 2.989-2.823 0.941-1.052 1.827-1.882 2.768-2.989l0.166 0.166c36.366-35.037 79.485-86.57 149.449-133.341 147.456-98.47 260.539-70.96 327.182-34.429 115.075 63.377 166.552 198.711 166.552 304.709-0.055 282.513-229.708 512.166-512 512.166z" />
<glyph unicode="&#xe902;" glyph-name="menulateral_tarefas" horiz-adv-x="1170" d="M1133.333 217.309h-1097.177c-20.2 0-36.549-16.349-36.549-36.628v-207.975c0-20.279 16.349-36.628 36.549-36.628h1097.177c20.2 0 36.549 16.349 36.549 36.628v207.975c0 20.279-16.349 36.628-36.549 36.628zM1096.705 9.255h-100.529v134.877h100.529v-134.877zM1133.333 588.694h-1097.177c-20.2 0-36.549-16.349-36.549-36.628v-207.975c0-20.279 16.349-36.628 36.549-36.628h1097.177c20.2 0 36.549 16.349 36.549 36.628v208.054c0 20.2-16.349 36.549-36.549 36.549zM1096.705 380.718h-549.414v134.877h549.414v-134.877zM1133.333 960.157h-1097.177c-20.2 0-36.549-16.427-36.549-36.628v-207.975c0-20.122 16.349-36.549 36.549-36.549h1097.177c20.2 0 36.549 16.427 36.549 36.549v207.975c0 20.2-16.349 36.628-36.549 36.628zM1096.705 752.182h-312.435v134.799h312.513v-134.799z" />
<glyph unicode="&#xe903;" glyph-name="menulateral_aprovacao" horiz-adv-x="1126" d="M837.773 89.778h-684.28v684.92h534.131l153.564 153.707h-841.331v-992.262h991.551v635.392l-153.564-153.707v-328.050zM321.717 568.119l-108.591-108.662 260.732-260.946 652.4 652.969-108.591 108.662-543.809-544.236-152.141 152.212z" />
<glyph unicode="&#xe904;" glyph-name="menulateral_crm" horiz-adv-x="1124" d="M46.224 333.297v-0.5h187.396c4.287 46.295 42.938 82.66 90.376 82.66s85.947-36.365 90.305-82.66h279.344c4.287 46.295 42.795 82.66 90.305 82.66 47.438 0 86.018-36.365 90.233-82.66h203.185v0.5c28.292 25.291 46.224 62.013 46.224 103.022v197.899c0 76.373-61.799 138.315-138.386 138.315h-155.247c-19.147 105.736-131.885 187.468-268.27 187.468-136.171 0-248.981-81.731-268.199-187.468h-155.104c-76.516 0-138.386-61.942-138.386-138.315v-197.97c0-40.937 18.004-77.659 46.224-102.95zM561.689 834.188c60.441 0 114.881-26.506 136.171-61.727h-272.2c21.29 35.293 75.802 61.727 136.028 61.727zM1077.225 282.501v-208.115c0-76.373-61.87-138.386-138.386-138.386h-754.229c-76.373 0-138.386 61.942-138.386 138.386v208.115h187.396c4.287-46.367 42.938-82.803 90.376-82.803s85.947 36.436 90.305 82.803h279.344c4.287-46.367 42.795-82.803 90.305-82.803 47.438 0 86.018 36.436 90.233 82.803h203.042z" />
<glyph unicode="&#xe905;" glyph-name="menulateral_projetos" horiz-adv-x="1127" d="M125.824 960.069c-69.571 0-125.962-56.322-125.962-125.754s56.392-125.754 125.962-125.754c69.64 0 125.962 56.392 125.962 125.754 0.069 69.432-56.322 125.754-125.962 125.754zM125.824 573.858c-69.571 0-125.962-56.322-125.962-125.754s56.392-125.754 125.962-125.754c69.64 0 125.962 56.322 125.962 125.754 0.069 69.432-56.322 125.754-125.962 125.754zM125.824 187.648c-69.571 0-125.962-56.392-125.962-125.754 0-69.501 56.392-125.754 125.962-125.754 69.64 0 125.962 56.322 125.962 125.754 0.069 69.432-56.322 125.754-125.962 125.754zM1110.773 944.463h-744.746c-8.878 0-16.092-7.214-16.092-16.023v-188.319c0-8.878 7.214-16.023 16.092-16.023h744.677c8.948 0 16.092 7.214 16.092 16.023v188.319c0.069 8.878-7.075 16.023-16.023 16.023zM1110.773 558.321h-744.746c-8.878 0-16.092-7.214-16.092-16.092v-188.25c0-8.878 7.214-16.092 16.092-16.092h744.677c8.948 0 16.092 7.214 16.092 16.092v188.25c0.069 8.809-7.075 16.092-16.023 16.092zM1110.773 172.11h-744.746c-8.878 0-16.092-7.214-16.092-16.023v-188.319c0-8.878 7.214-16.092 16.092-16.092h744.677c8.948 0 16.092 7.214 16.092 16.092v188.319c0.069 8.809-7.075 16.023-16.023 16.023z" />
<glyph unicode="&#xe906;" glyph-name="menulateral_contratos" horiz-adv-x="1023" d="M570.142 777.763h-349.040c-25.724 0-46.551-20.889-46.551-46.551 0-25.724 20.827-46.551 46.551-46.551h349.040c25.724 0 46.551 20.827 46.551 46.551 0 25.662-20.827 46.551-46.551 46.551zM616.693 556.599c0 25.724-20.827 46.551-46.551 46.551h-349.040c-25.724 0-46.551-20.827-46.551-46.551 0-25.662 20.827-46.551 46.551-46.551h349.040c25.724 0 46.551 20.889 46.551 46.551zM395.653 335.558c25.724 0 46.551 20.889 46.551 46.489 0 25.786-20.827 46.551-46.551 46.551h-174.551c-25.724 0-46.551-20.765-46.551-46.551 0-25.662 20.827-46.489 46.551-46.489h174.551zM746.987 177.185l-48.845-32.232v-115.851h-605.040v837.796h605.040v-183.911l93.102 161.224v69.238c0 25.724-20.827 46.551-46.551 46.551h-698.142c-25.724 0-46.551-20.827-46.551-46.551v-930.96c0-25.662 20.827-46.489 46.551-46.489h698.142c25.786 0 46.613 20.827 46.613 46.489v256.62l-22.253-38.555c-5.517-9.36-13.079-17.418-22.067-23.369zM1022.202 744.415c-0.992 4.215-10.785 41.778-70.044 76.056-59.196 34.154-96.697 23.864-100.788 22.563-5.579-1.736-10.228-5.517-13.203-10.538l-290.836-503.88c-1.798-3.161-2.913-6.632-3.099-10.29l-10.909-181.803c-0.558-8.864 3.905-17.108 11.591-21.571s17.108-4.029 24.484 0.744l151.988 100.354c3.037 1.922 5.579 4.587 7.376 7.748l290.898 503.88c2.913 5.145 3.781 11.095 2.541 16.736zM628.037 196.339c-7.748 6.261-16.55 12.087-25.91 17.542-9.484 5.517-19.030 10.104-28.265 13.699l3.223 54.547c12.149-1.612 30.125-6.508 52.936-19.649 22.811-13.203 36.076-26.282 43.514-36.014l-45.497-30.125zM324.494 120.469c1.488-9.298 12.273-12.211 19.463-15.248 6.942-2.913 15.248 2.665 21.075 5.455 35.518 17.294 83.618-3.037 121.677-3.037 22.501 0 22.501 34.898 0 34.898-44.32 0-81.325 11.281-125.211 3.905 0 2.603-0.992 6.013-3.719 10.723-8.244 14.071-18.72 18.038-29.195 16.364-0.682 1.612-1.364 3.285-2.355 4.959-2.727 4.463-6.508 6.756-10.909 7.686 12.273 21.447 20.145 44.134 12.149 62.419-2.479 5.641-9.422 8.492-15.124 8.74-23.307 0.868-43.266-23.616-58.204-38.307-37.501-36.757-70.539-78.536-102.462-120.004-13.823-17.852 16.612-35.208 30.063-17.604 28.327 36.757 58.266 72.461 90.623 105.809-7.81-12.707-16.054-25.228-24.67-37.377-12.459-19.215 17.232-35.518 30.063-17.604 3.099 4.711 6.942 8.058 11.281 10.971-0.868-2.169-1.674-4.215-2.603-6.446 0.062 0 0.062 0 0.186 0-0.744-1.364-1.364-2.789-1.922-4.091-7.81-19.525 21.385-28.513 31.923-13.451 2.727 3.843 5.207 7.872 7.438 12.087-0.062-2.975-0.186-6.818 0.434-10.847z" />
<glyph unicode="&#xe907;" glyph-name="menulateral_solucoes" horiz-adv-x="1007" d="M889.936 960l67.221-571.535-75.474-8.883-60.039 510.488h-636.425l-60.039-510.488-75.474 8.883 67.221 571.535h773.008zM247.464 832.047h512v-64.071h-512v64.071zM247.464 704.031h512v-64.008h-512v64.008zM247.464 576.016h512v-64.071h-512v64.071zM247.464 448h512v-64.008h-512v64.008zM983.428 320.047h-959.992c-17.577 0-27.468-13.671-21.924-30.366l107.793-323.315c5.544-16.695 24.507-30.303 42.084-30.303h704.024c17.577 0 36.54 13.671 42.147 30.303l107.793 323.315c5.544 16.695-4.284 30.366-21.924 30.366zM631.448 192.031h-256.031v64.008h256.031v-64.008z" />
<glyph unicode="&#xe908;" glyph-name="menulateral_agenda" horiz-adv-x="1042" d="M254.793 721.283h14.805c22.684 0 41.046 18.363 41.046 41.046v155.608c0 22.62-18.363 41.046-41.046 41.046h-14.805c-22.684 0-41.046-18.363-41.046-41.046v-155.544c-0.064-22.747 18.299-41.11 41.046-41.11zM781.089 722.363h14.868c22.684 0 41.046 18.363 41.046 41.046v155.544c0.064 22.684-18.299 41.046-41.046 41.046h-14.868c-22.62 0-41.046-18.363-41.046-41.046v-155.608c0-22.62 18.426-40.983 41.046-40.983zM975.71 875.556h-105.285v-123.012c0-41.046-33.358-63.603-74.468-63.603h-14.868c-41.046 0-74.405 33.358-74.405 74.405v112.21h-362.683v-113.164c0-41.046-33.358-74.468-74.405-74.468h-14.805c-41.046 0-74.405 33.358-74.405 74.468v113.164h-113.672c-36.726 0-66.716-29.927-66.716-66.716v-806.187c0-36.726 29.991-66.716 66.716-66.716h909.057c36.789 0 66.716 29.991 66.716 66.716v806.187c-0.064 36.789-29.927 66.716-66.78 66.716zM975.71 2.716h-908.994v608.834h909.057v-608.834h-0.064zM555.715 407.335h119.772c4.702 0 8.578 3.812 8.578 8.578v103.696c0 4.702-3.876 8.578-8.578 8.578h-119.772c-4.829 0-8.641-3.876-8.641-8.578v-103.76c0-4.765 3.812-8.514 8.641-8.514zM751.162 407.335h119.772c4.702 0 8.641 3.812 8.641 8.578v103.696c0 4.702-3.939 8.578-8.641 8.578h-119.772c-4.765 0-8.641-3.876-8.641-8.578v-103.76c0.064-4.765 3.876-8.514 8.641-8.514zM164.694 237.494h119.835c4.702 0 8.578 3.812 8.578 8.641v103.633c0 4.765-3.876 8.578-8.578 8.578h-119.835c-4.765 0-8.578-3.812-8.578-8.578v-103.696c0-4.829 3.812-8.578 8.578-8.578zM360.205 237.494h119.772c4.765 0 8.641 3.812 8.641 8.641v103.633c0 4.765-3.876 8.578-8.641 8.578h-119.772c-4.765 0-8.641-3.812-8.641-8.578v-103.696c0-4.829 3.876-8.578 8.641-8.578zM555.715 237.494h119.772c4.702 0 8.578 3.812 8.578 8.641v103.633c0 4.765-3.876 8.578-8.578 8.578h-119.772c-4.829 0-8.641-3.812-8.641-8.578v-103.696c0-4.829 3.812-8.578 8.641-8.578zM751.162 237.494h119.772c4.702 0 8.641 3.812 8.641 8.641v103.633c0 4.765-3.939 8.578-8.641 8.578h-119.772c-4.765 0-8.641-3.812-8.641-8.578v-103.696c0.064-4.829 3.876-8.578 8.641-8.578zM284.529 188.505h-119.835c-4.765 0-8.578-3.812-8.578-8.578v-103.696c0-4.765 3.812-8.641 8.578-8.641h119.835c4.702 0 8.578 3.876 8.578 8.641v103.696c-0.064 4.829-3.876 8.578-8.578 8.578zM479.976 188.505h-119.772c-4.765 0-8.641-3.812-8.641-8.578v-103.696c0-4.765 3.876-8.641 8.641-8.641h119.772c4.765 0 8.641 3.876 8.641 8.641v103.696c-0.064 4.829-3.876 8.578-8.641 8.578zM675.487 188.505h-119.772c-4.829 0-8.641-3.812-8.641-8.578v-103.696c0-4.765 3.812-8.641 8.641-8.641h119.772c4.702 0 8.641 3.876 8.641 8.641v103.696c0 4.829-3.939 8.578-8.641 8.578zM870.934 188.505h-119.772c-4.765 0-8.641-3.812-8.641-8.578v-103.696c0-4.765 3.876-8.641 8.641-8.641h119.772c4.702 0 8.641 3.876 8.641 8.641v103.696c0 4.829-3.939 8.578-8.641 8.578z" />
<glyph unicode="&#xe909;" glyph-name="menu" horiz-adv-x="1216" d="M70.502 816.282h1074.995c38.963 0 70.502 32.102 70.502 71.834 0 39.68-31.539 71.885-70.502 71.885h-1074.995c-38.963 0-70.502-32.205-70.502-71.834 0-39.782 31.539-71.885 70.502-71.885zM1145.498 519.885h-1074.995c-38.963 0-70.502-32.256-70.502-71.885 0-39.731 31.539-71.834 70.502-71.834h1074.995c38.963 0 70.502 32.102 70.502 71.834 0 39.629-31.539 71.885-70.502 71.885zM1145.498 79.821h-1074.995c-38.963 0-70.502-32.307-70.502-71.936 0-39.731 31.539-71.885 70.502-71.885h1074.995c38.963 0 70.502 32.205 70.502 71.885 0 39.629-31.539 71.936-70.502 71.936z" />
<glyph unicode="&#xe90a;" glyph-name="settings" d="M1021.993 495.391l-0.573-0.041c-2.048 20.070-17.94 36.004-38.011 38.011h-23.429v0.246c-25.068 0-46.899 14.5-57.303 35.594-2.54 5.161-4.424 10.691-5.489 16.507-4.71 13.148-10.035 25.928-16.056 38.42 0 0.041 0 0.041-0.041 0.082-2.99 4.424-5.448 9.175-7.209 14.336v0.041c-2.417 6.717-3.645 13.885-3.645 21.34 0 17.613 7.086 33.587 18.678 45.138h-0.082l12.984 12.984c0.205 0.123 0.369 0.246 0.532 0.451 0.164 0.164 0.328 0.328 0.451 0.532 15.196 15.606 15.974 39.936 2.458 56.484l0.246 0.164c-9.953 11.96-20.398 23.388-31.375 34.284-11.223 11.264-22.938 21.914-35.144 32.072l-0.164-0.123c-14.991 12.247-36.454 12.698-51.978 1.311l-9.339-9.38-8.765-8.684-0.41 0.41c-18.678-18.678-45.957-23.388-69.059-14.131-3.113 1.229-6.144 2.703-9.093 4.465-14.623 7.168-29.86 13.435-45.425 18.76-2.785 0.696-5.489 1.597-8.151 2.662 0 0-0.082 0-0.082 0.082-7.7 3.031-14.868 7.741-21.135 13.967-10.363 10.404-16.425 23.552-18.145 37.192-0.696 5.325-0.696 10.609 0 15.974v10.977c0 20.931-15.196 38.38-35.144 41.943-2.499 0.246-4.956 0.451-7.455 0.655h-0.041c-14.049 1.147-28.18 1.761-42.598 1.761-14.336 0-28.508-0.614-42.598-1.761h-0.041c-2.54-0.205-4.997-0.41-7.496-0.655-19.988-3.564-35.103-21.012-35.103-41.943v-19.005c0-27.443-17.244-50.831-41.574-59.843-1.516-0.614-3.113-1.188-4.71-1.556-17.121-5.816-33.628-12.657-49.521-20.562-0.082-0.041-0.082-0.082-0.205-0.082-1.229-0.655-2.458-1.27-3.85-1.925-8.11-3.686-17.121-5.775-26.583-5.775-17.654 0-33.587 7.209-45.179 18.719l-0.082-0.082-13.517 13.435c-14.787 14.828-37.724 16.425-54.354 4.915-1.966-1.556-3.809-3.113-5.652-4.71-0.082-0.082-0.164-0.164-0.246-0.205-10.936-9.216-21.381-18.801-31.416-28.877-10.035-9.994-19.661-20.48-28.836-31.252 0 0-0.041 0-0.041-0.082-1.638-1.925-3.318-3.891-4.833-5.816-11.633-16.63-9.994-39.608 4.833-54.395l13.476-13.435c19.292-19.374 23.634-48.046 13.025-71.598-0.696-1.434-1.434-2.908-2.212-4.301-7.864-15.852-14.705-32.358-20.48-49.316-0.492-1.802-1.106-3.564-1.802-5.284 0 0 0 0 0-0.082-3.113-8.069-7.946-15.647-14.541-22.159-12.493-12.493-28.754-18.719-45.179-18.719v-0.164h-19.005c-21.053 0-38.42-15.114-41.943-35.062-0.287-2.458-0.492-4.997-0.737-7.496-1.106-13.763-1.761-28.59-1.761-42.639 0-0.123 0-0.246 0-0.328 0-0.123 0-0.287 0-0.369 0-14.131 0.655-28.058 1.761-41.861v-0.082c0.246-2.499 0.451-4.915 0.737-7.455 3.523-19.948 20.931-35.062 41.82-35.062 0 0 0 0 0.123 0h19.046c27.238 0 50.422-17.039 59.679-40.96 0-0.041 0-0.082 0-0.082 0.614-1.597 1.147-3.195 1.556-4.792 0.082-0.123 0.082-0.205 0.164-0.328 5.775-16.998 12.657-33.546 20.48-49.48 0.082-0.082 0.164-0.164 0.164-0.246 0.737-1.188 1.352-2.499 1.925-3.768 3.727-8.11 5.816-17.162 5.816-26.583 0-17.613-7.127-33.628-18.719-45.22l0.123-0.082-13.025-12.984c-0.164-0.123-0.328-0.287-0.532-0.492-0.246-0.164-0.41-0.328-0.532-0.532-14.213-14.623-15.852-36.987-4.751-53.371 1.843-2.253 3.727-4.465 5.612-6.676 9.134-10.732 18.637-21.012 28.59-30.966 9.953-9.994 20.398-19.579 31.13-28.713 2.171-1.802 4.342-3.645 6.513-5.489 14.787-9.953 34.406-9.585 48.865 0.942l9.38 9.421 8.806 8.724 0.41-0.369c19.374 19.333 48.128 23.634 71.721 12.902 1.229-0.532 2.499-1.106 3.604-1.761 0.082-0.082 0.205-0.082 0.287-0.164 16.015-7.946 32.727-14.909 49.93-20.685 1.434-0.451 2.949-0.942 4.342-1.475 8.356-3.113 16.261-7.946 23.060-14.705 12.493-12.452 18.719-28.754 18.719-45.138h0.164v-18.637c0-21.996 16.712-40.182 38.257-42.394v-0.246c15.483-1.475 31.171-2.171 46.981-2.171 15.933 0 31.539 0.696 46.981 2.171l-0.041 0.246c21.463 2.212 38.339 20.398 38.339 42.394v19.005c0 25.641 15.032 47.759 36.782 57.876 4.465 2.089 9.134 3.645 14.008 4.669 14.049 4.956 27.689 10.568 40.919 16.998 3.809 2.54 7.946 4.588 12.329 6.144 6.922 2.58 14.5 4.096 22.405 4.096 16.22 0 31.007-6.062 42.312-16.179 1.966-1.638 3.809-3.441 5.53-5.448l10.895-10.895 0.041 0.082c15.032-14.991 38.461-16.466 55.173-4.424 0.082 0 0.123 0.123 0.164 0.205 1.393 1.106 2.744 2.253 4.096 3.4 11.182 9.38 21.955 19.292 32.276 29.614 10.281 10.322 20.193 21.012 29.655 32.195 1.229 1.516 2.458 2.99 3.645 4.465 11.715 15.974 10.691 38.339-2.867 53.371l-14.991 14.991v0.041c-19.046 19.046-23.552 47.104-13.517 70.451 0.942 2.171 2.007 4.342 3.195 6.431 7.578 15.319 14.213 31.293 19.784 47.677 0.614 2.171 1.27 4.301 2.171 6.39 3.072 7.946 7.905 15.401 14.336 21.873 12.452 12.452 28.754 18.678 45.179 18.678v0.082h18.391v0.246c22.774 0 41.411 17.9 42.516 40.346l0.655-0.082c1.27 14.746 1.925 29.614 1.925 44.605-0.164 15.933-0.901 31.621-2.335 47.186zM773.816 448.164c0-29.778-4.915-58.491-14.131-85.156-3.482-10.158-7.619-20.070-12.247-29.655-12.739-26.173-29.819-49.889-50.135-70.328-20.357-20.398-44.032-37.478-70.205-50.34-9.667-4.751-19.62-8.929-29.86-12.493-26.747-9.257-55.46-14.254-85.279-14.377-0.246 0-0.492 0-0.778 0-29.614 0-57.917 4.874-84.5 13.885-10.691 3.523-20.972 7.864-30.925 12.739-26.051 12.739-49.644 29.614-69.919 49.848-20.48 20.316-37.56 43.95-50.34 70.042-4.833 9.871-9.175 20.111-12.78 30.638-9.134 26.501-14.090 54.927-14.172 84.541 0.082 29.532 5.038 59.269 14.172 85.77 3.604 10.527 7.905 20.767 12.78 30.638 12.82 26.092 29.86 49.766 50.34 70.042 20.48 20.357 44.237 37.396 70.41 50.094 9.83 4.792 19.948 8.97 30.433 12.493 26.542 9.011 54.886 13.885 84.5 13.885 0.287 0 0.532 0 0.778 0 29.86-0.123 58.532-5.202 85.279-14.377 10.199-3.564 20.152-7.7 29.819-12.534 26.214-12.82 49.889-29.942 70.205-50.34 20.275-20.357 37.192-43.868 49.93-69.837 4.751-9.708 8.929-19.743 12.493-30.106 9.175-26.624 14.131-55.214 14.131-84.91v-0.164z" />
<glyph unicode="&#xe90b;" glyph-name="limpar" horiz-adv-x="1418" d="M1370.585 960h-675.682c-11.658 0-22.922-4.411-31.508-12.288l-647.798-592.345c-9.925-9.137-15.596-22.134-15.596-35.761v-335.557c0-26.545 21.189-48.049 47.262-48.049h675.682c11.5 0 22.843 4.49 31.508 12.288l647.719 592.423c10.004 9.058 15.675 22.055 15.675 35.682v335.636c0 26.545-21.189 47.97-47.262 47.97zM675.682 32.177h-581.317v239.38h581.317v-239.38zM704.748 367.655h-534.37l209.762 191.882 534.449 0.079-209.841-191.961zM770.127 91.884v206.297l215.198 196.923 0.236-206.139-215.434-197.081z" />
<glyph unicode="&#xe90c;" glyph-name="lixeira" horiz-adv-x="819" d="M784.657 927.437h-241.596c-1.707 18.295-16.452 32.563-34.406 32.563h-198.11c-18.022 0-32.7-14.268-34.406-32.563h-241.596c-19.046 0-34.543-16.111-34.543-36.113v-68.676c0-19.934 15.497-36.113 34.543-36.113h750.114c19.046 0 34.543 16.179 34.543 36.113v68.676c0 20.002-15.497 36.113-34.543 36.113zM72.499-27.887c0-19.934 15.428-36.113 34.543-36.113h605.047c19.115 0 34.611 16.179 34.611 36.113v744.994h-674.202v-744.994zM493.636 552.926c0 22.050 17.067 39.868 38.093 39.868 21.094 0 38.161-17.886 38.161-39.868v-394.923c0-21.982-17.067-39.868-38.161-39.868-21.026 0-38.093 17.886-38.093 39.868v394.923zM249.31 552.926c0 22.050 17.067 39.868 38.161 39.868 21.026 0 38.093-17.886 38.093-39.868v-394.923c0-21.982-17.067-39.868-38.093-39.868-21.094 0-38.161 17.886-38.161 39.868v394.923z" />
<glyph unicode="&#xe90d;" glyph-name="relogio" d="M512 960c-282.351 0-512-229.649-512-512s229.649-512 512-512 512 229.649 512 512-229.649 512-512 512zM512 44.954c-222.276 0-403.046 180.77-403.046 403.046s180.77 403.046 403.046 403.046 403.046-180.77 403.046-403.046-180.77-403.046-403.046-403.046zM778.786 463.77h-230.059v276.685c0 23.347-18.842 42.189-42.121 42.189s-42.189-18.842-42.189-42.189v-318.805c0-23.279 18.91-42.189 42.189-42.189h272.179c23.347 0 42.189 18.91 42.189 42.189s-18.842 42.121-42.189 42.121z" />
<glyph unicode="&#xe90e;" glyph-name="interoogacao" horiz-adv-x="585" d="M498.322 831.854c-56.466 40.741-128.146 61.367-213.211 61.367-65.024 0-120.613-14.555-165.376-43.374-71.168-45.202-109.568-122.734-114.103-230.327l-0.366-7.68h175.689v7.314c0 29.257 8.704 57.856 25.893 85.065 16.75 26.478 44.544 39.424 85.211 39.424 41.106 0 69.339-10.679 84.334-31.744 15.506-21.797 23.333-46.299 23.333-72.704 0-19.090-7.899-38.473-25.819-63.195-7.607-11.118-17.92-21.577-30.062-30.793-3.584-2.267-88.576-57.051-127.122-102.254-24.576-28.818-26.039-63.707-28.16-122.953l-0.439-14.409h170.35l0.073 7.095c0.439 28.233 2.56 31.963 6.949 45.787 5.486 17.627 20.334 35.547 44.763 54.565l44.69 30.866c40.521 31.598 72.631 57.344 87.259 78.117 28.16 38.473 42.35 80.896 42.35 126.025 0.073 80.677-28.965 142.555-86.235 183.808zM282.697 215.698l-3.584 0.073c-60.123 0-105.179-43.739-106.862-104.009-1.682-61.294 42.13-107.081 104.302-108.91l4.096-0.073c61.586 0 105.765 42.203 107.593 102.619 1.755 63.049-41.618 108.471-105.545 110.299z" />
<glyph unicode="&#xe90f;" glyph-name="abrir_fechar_filtro" horiz-adv-x="1707" d="M1698.133 525.71c-26.396 25.145-439.524 422.116-439.524 422.116s-33.337 32.199-33.337-10.468c0-42.78 0-275.115 0-275.115h-744.448c0 0 0 232.334 0 275.115 0 42.667-33.337 10.468-33.337 10.468s-413.355-396.971-439.637-422.116c-19.115-18.432 2.276-35.726 2.276-35.726l430.99-428.942c0 0 31.858-32.199 31.858 2.844-0.228 35.157 0 284.331 0 284.331h760.036c0 0 0-249.287 0-284.331 0-35.157 31.972-2.731 31.972-2.731l430.99 428.715c-0.114-0.114 21.276 17.408 2.162 35.84z" />
<glyph unicode="&#xe910;" glyph-name="check" horiz-adv-x="1317" d="M1270.491 914.213c-56.027 61.44-146.871 61.44-203.045 0l-542.427-594.213-279.845 306.615c-56.027 61.44-147.017 61.44-202.898 0-56.174-61.44-56.174-161.207 0-222.501l381.074-417.938c56.32-61.294 147.017-61.294 203.337 0l643.657 705.536c56.027 61.44 56.027 160.914 0.146 222.501z" />
<glyph unicode="&#xe911;" glyph-name="chev_up" horiz-adv-x="1707" d="M1659.392 214.528l-648.192 641.365c-8.021 21.163-19.627 41.131-36.864 58.027-34.816 34.645-81.579 48.299-127.147 44.885-43.861 2.048-88.235-12.459-121.685-46.251-15.019-15.189-25.941-32.939-33.792-51.541l-644.096-650.24c-63.659-63.147-63.659-165.035 0-227.669 63.488-62.976 166.4-62.976 230.059 0l571.221 576.512 582.144-575.829c62.976-63.829 165.376-63.829 228.352 0 62.976 63.659 62.976 166.912 0 230.741z" />
<glyph unicode="&#xe912;" glyph-name="chev_down" horiz-adv-x="1707" d="M1654.784 913.067c-63.488 62.976-166.229 62.976-229.717 0l-569.685-576.853-580.267 576.171c-62.805 63.829-165.035 63.829-227.84 0-62.805-63.659-62.805-167.083 0-230.741l646.656-641.877c7.851-21.163 19.456-40.96 36.523-58.027 34.816-34.475 81.408-48.128 126.805-44.885 43.691-2.048 88.064 12.459 121.173 46.251 15.019 15.36 26.112 33.109 33.963 51.712l642.56 650.581c63.147 62.976 63.147 164.864-0.171 227.669z" />
<glyph unicode="&#xe913;" glyph-name="save" d="M1011.439 748.646l-198.793 198.793c-7.987 8.124-18.842 12.561-30.242 12.561h-739.601c-23.689 0-42.803-19.115-42.803-42.735v-938.462c0-23.689 19.115-42.803 42.803-42.803h938.394c23.62 0 42.803 19.115 42.803 42.803v739.669c0 11.332-4.506 22.187-12.561 30.174zM756.258 548.625h-587.366v313.617h587.366v-313.617zM538.419 587.332h108.407c7.851 0 14.268 6.417 14.268 14.268v208.555c0 7.851-6.417 14.268-14.268 14.268h-108.407c-7.851 0-14.268-6.417-14.268-14.268v-208.555c0-7.851 6.349-14.268 14.268-14.268z" />
<glyph unicode="&#xe914;" glyph-name="accordeon_menos" horiz-adv-x="4096" d="M3584 960h-3072c-282.624 0-512-229.035-512-512 0-282.624 229.376-512 512-512h3072c282.624 0 512 229.376 512 512 0 282.965-229.376 512-512 512z" />
<glyph unicode="&#xe916;" glyph-name="close" d="M989.365 925.472c46.252-46.252 46.36-121.008 0.108-167.26l-310.319-310.319 310.319-310.319c46.037-46.037 46.037-120.901-0.108-166.938-23.126-23.018-53.244-34.635-83.469-34.635s-60.558 11.617-83.469 34.635l-310.319 310.212-310.319-310.319c-23.018-23.018-53.351-34.528-83.469-34.528-30.225 0-60.558 11.402-83.576 34.528-46.145 46.252-46.145 120.901 0 167.153l310.319 310.212-310.427 310.319c-46.252 46.252-46.145 121.116 0 167.26 46.252 46.145 120.901 46.145 167.045 0l310.427-310.427 310.319 310.319c46.037 46.145 120.901 46.037 166.938 0.108z" />
<glyph unicode="&#xe917;" glyph-name="mais" d="M1024 448.041c0-49.515-40.053-89.732-89.65-89.732h-332.741v-332.741c0-49.434-40.134-89.568-89.732-89.568-24.717 0-47.068 10.034-63.22 26.185-16.233 16.233-26.267 38.666-26.267 63.302v332.822h-332.822c-24.717 0-47.15 10.115-63.22 26.267-16.315 16.315-26.348 38.585-26.348 63.465 0 49.434 40.134 89.487 89.65 89.487h332.741v332.741c0 49.679 40.134 89.732 89.568 89.732s89.65-40.053 89.65-89.568v-332.904h332.822c49.515 0 89.568-40.053 89.568-89.487z" />
<glyph unicode="&#xe918;" glyph-name="notificacoes" horiz-adv-x="1066" d="M879.061 959.952h-692.123c-103.038 0-186.841-83.948-186.841-187.131v-427.472c0-103.183 83.803-187.131 186.841-187.131h440.859l211.054-211.295c7.104-7.153 16.722-10.971 26.436-10.971 4.833 0 9.666 0.918 14.305 2.851 13.967 5.8 23.101 19.428 23.101 34.555v186.309c91.922 11.647 163.305 90.472 163.305 185.681v427.472c0 103.183-83.851 187.131-186.938 187.131zM991.233 345.349c0-61.91-50.311-112.269-112.124-112.269h-13.774c-20.685 0-37.359-16.77-37.359-37.407v-131.891l-158.182 158.375c-7.008 7.008-16.529 10.971-26.436 10.971h-456.421c-61.813 0-112.076 50.359-112.076 112.269v427.424c0 61.91 50.262 112.269 112.076 112.269h692.123c61.813 0 112.124-50.359 112.124-112.269v-427.472zM808.113 694.962h-550.18c-20.637 0-37.31-16.77-37.31-37.407s16.674-37.455 37.31-37.455h550.18c20.685 0 37.359 16.77 37.359 37.407s-16.722 37.455-37.359 37.455zM808.113 485.359h-550.18c-20.637 0-37.31-16.722-37.31-37.359s16.722-37.407 37.31-37.407h550.18c20.685 0 37.359 16.77 37.359 37.407s-16.722 37.359-37.359 37.359z" />
<glyph unicode="&#xe919;" glyph-name="breadcrum_home" horiz-adv-x="1153" d="M1138.687 488.071l-518.59 455.985c-24.234 21.258-63.349 21.258-87.158 0l-518.271-455.985c-24.234-21.258-17.75-38.477 14.455-38.477h160.073v-467.039c0-25.403 20.833-46.555 46.555-46.555h195.787v307.179c0 25.51 20.833 46.555 46.555 46.555h197.594c25.722 0 46.555-20.62 46.555-46.555v-307.179h195.787c25.722 0 46.555 20.939 46.555 46.555v467.146h160.073c31.356 0 37.839 17.006 14.030 38.371z" />
<glyph unicode="&#xe91a;" glyph-name="search" d="M998.814 82.251l-222.424 222.486c-1.232 1.17-2.586 1.971-3.818 3.079 43.721 66.382 69.277 145.881 69.277 231.353 0 232.523-188.494 421.017-420.955 421.017-232.523 0-421.017-188.494-421.017-421.017 0-232.461 188.494-420.955 421.017-420.955 85.472 0 164.971 25.555 231.353 69.338 1.108-1.293 1.909-2.648 3.079-3.879l222.486-222.424c33.376-33.437 87.566-33.437 121.003 0s33.437 87.627 0 121.003zM420.894 264.155c-151.916 0-275.074 123.097-275.074 275.013 0 151.977 123.158 275.074 275.074 275.074s275.013-123.158 275.013-275.074-123.097-275.013-275.013-275.013z" />
<glyph unicode="&#xe91c;" glyph-name="apple" horiz-adv-x="834" d="M620.704 959.061c-51.435-2.079-113.733-34.2-150.683-77.521-33.127-38.291-62.097-99.516-54.385-158.261 57.403-4.493 116.013 29.171 151.823 72.424s59.817 103.406 53.245 163.357zM696.347 415.342c-1.341 129.626 105.686 191.723 110.447 194.808-60.085 87.982-153.768 99.986-187.096 101.461-79.667 8.047-155.511-46.942-195.948-46.942-40.37 0-102.735 45.735-168.923 44.528-86.775-1.341-166.844-50.496-211.573-128.285-90.262-156.584-23.136-388.61 64.847-515.554 43.052-62.164 94.219-131.973 161.547-129.492 64.78 2.548 89.256 41.912 167.649 41.912 78.326 0 100.321-41.912 168.923-40.638 69.742 1.341 113.934 63.371 156.651 125.737 49.289 72.089 69.608 141.965 70.882 145.519-1.676 0.671-136.131 52.105-137.405 206.946z" />
<glyph unicode="&#xe91d;" glyph-name="export" horiz-adv-x="1260" d="M945.192 93.532h-787.66v551.404h177.192l196.936 157.532h-531.66v-866.468h1102.724v441.090l-157.532-126.026zM312.543 249.3c133.419 129.974 291.371 246.926 553.925 237.516v-156.944l393.788 315.064-393.788 315.064v-155.768c-278.937-2.689-553.925-246.002-553.925-554.933z" />
</font>
</defs>
</svg>
